<svg version="1.1" id="Layer_1" xmlns="http://www.w3.org/2000/svg" xmlns:xlink="http://www.w3.org/1999/xlink" x="0px" y="0px"
	 width="100%" viewBox="0 0 1376 3064" enable-background="new 0 0 1376 3064" xml:space="preserve">
<path fill="#FFFEFE" opacity="1.000000" stroke="none" 
	d="
M622.000000,3066.000000 
	C414.666656,3066.000000 208.333328,3066.000000 2.000000,3066.000000 
	C2.000000,2044.666626 2.000000,1023.333313 2.000000,2.000000 
	C460.666656,2.000000 919.333313,2.000000 1378.000000,2.000000 
	C1378.000000,1023.333313 1378.000000,2044.666626 1378.000000,3066.000000 
	C1126.333374,3066.000000 874.666687,3066.000000 622.000000,3066.000000 
M1062.694214,1976.900391 
	C1066.868286,1973.333740 1072.590576,1970.862061 1072.429565,1962.547119 
	C1077.389404,1950.716919 1079.235107,1938.253418 1079.770142,1925.559692 
	C1083.591309,1834.899658 1078.307861,1744.714722 1065.046753,1654.999146 
	C1061.794434,1632.996216 1057.264038,1611.182251 1053.229370,1587.720581 
	C1052.791992,1585.122314 1052.354614,1582.524170 1052.856445,1578.682495 
	C1055.274658,1566.192017 1049.595825,1554.954224 1047.306885,1543.196167 
	C1047.071411,1541.987427 1046.389526,1540.494629 1045.432983,1539.860962 
	C1041.016113,1536.934814 1041.986450,1532.475708 1041.930054,1526.645386 
	C1040.951294,1512.376099 1034.252930,1499.979858 1028.901733,1487.152710 
	C1028.605225,1486.441650 1027.296021,1486.152954 1026.330200,1483.878906 
	C1025.517822,1474.552490 1024.705444,1465.226074 1023.792908,1454.218506 
	C1023.299683,1449.918457 1022.775330,1445.621704 1022.317993,1441.317871 
	C1016.859558,1389.945435 999.937256,1342.862793 970.182678,1300.437378 
	C946.647705,1266.880249 917.964172,1238.279053 886.738892,1212.005371 
	C872.724854,1200.213623 858.862854,1188.234375 845.151184,1176.092651 
	C837.072754,1168.939087 834.484985,1159.358276 835.258057,1148.923950 
	C835.460449,1146.192749 836.572571,1142.762695 838.505981,1141.063965 
	C845.365723,1135.036987 847.892517,1127.368286 847.966064,1118.773315 
	C848.205322,1090.788086 848.697998,1062.789795 848.092529,1034.818237 
	C847.760071,1019.462158 839.455261,1008.396362 824.752625,1003.092896 
	C818.210144,1000.732788 811.365723,998.995178 804.519043,997.726990 
	C748.046082,987.266357 691.339294,985.204529 634.446655,993.921204 
	C624.265869,995.481018 614.018616,997.405518 604.221375,1000.492493 
	C587.446899,1005.778076 576.729004,1017.440002 575.806824,1035.317505 
	C574.399902,1062.592285 574.221069,1089.933472 573.707886,1117.249878 
	C573.549561,1125.678101 576.540894,1133.387695 583.351440,1138.293823 
	C589.347046,1142.612915 589.941711,1147.393799 588.536316,1153.815186 
	C587.197937,1159.930298 584.792053,1165.316650 579.847595,1169.102173 
	C572.190674,1174.964233 564.492432,1180.831909 556.390259,1186.041870 
	C530.565430,1202.648193 505.850037,1220.724487 482.622559,1240.799316 
	C450.769409,1268.328857 423.509247,1299.701660 406.272217,1338.449951 
	C386.209412,1383.550659 377.908508,1429.770264 395.740479,1478.150635 
	C406.024841,1506.053467 412.066864,1535.116211 414.509460,1564.838989 
	C417.526825,1601.555298 414.853363,1638.101440 410.813904,1674.560913 
	C407.292511,1706.344727 403.167511,1738.061523 398.535522,1771.088867 
	C394.959290,1795.477051 388.561676,1819.223389 380.361420,1842.356689 
	C365.941772,1883.035156 350.575623,1923.378174 334.268463,1964.213501 
	C333.395325,1965.167114 332.156647,1965.973267 331.703491,1967.096436 
	C323.653900,1987.045776 315.295532,2006.948975 310.752563,2028.026245 
	C309.695343,2032.931396 306.389679,2038.572021 309.984314,2045.422852 
	C309.867432,2046.862915 309.750519,2048.302979 308.917999,2050.364258 
	C308.463043,2050.846191 308.221191,2051.418213 308.046265,2053.529297 
	C307.891418,2055.461426 307.736572,2057.393555 306.481445,2060.457275 
	C305.513885,2066.687012 304.643951,2072.934082 303.563141,2079.144043 
	C295.673523,2124.476318 290.884857,2170.164307 291.757507,2216.152588 
	C292.413086,2250.699707 294.629272,2285.275879 297.670441,2319.704834 
	C301.652679,2364.787842 308.852020,2409.468506 318.272430,2455.373047 
	C321.567444,2470.567383 324.802765,2485.775146 328.201874,2500.946045 
	C328.990906,2504.467773 330.262695,2507.890381 331.441284,2511.313965 
	C338.126221,2530.731689 345.008392,2550.083252 351.515594,2569.559814 
	C357.709015,2588.097168 363.441711,2606.787842 369.536163,2625.358643 
	C373.560364,2637.621094 377.865906,2649.791260 380.946411,2663.058105 
	C379.977325,2676.557617 384.559265,2688.649658 390.576385,2700.327881 
	C391.048920,2701.244629 392.776276,2701.514893 394.543030,2703.296631 
	C405.058990,2720.337891 419.689148,2733.032959 436.243591,2744.011963 
	C454.742401,2756.279785 475.690552,2761.210938 496.837646,2765.693359 
	C504.545349,2767.326904 512.460999,2767.979980 521.483154,2769.467041 
	C527.162354,2770.354248 532.841553,2771.241455 539.332214,2772.033203 
	C539.332214,2772.033203 540.149475,2772.012207 540.149475,2772.012207 
	C540.149475,2772.012207 540.965454,2772.062988 542.714844,2772.197510 
	C551.571838,2773.436768 560.421997,2774.726807 569.286926,2775.906006 
	C605.175781,2780.680664 641.310913,2781.987793 677.434937,2782.981934 
	C692.997009,2783.410156 708.622192,2782.505371 724.187134,2781.638428 
	C746.698181,2780.385010 769.180542,2778.615723 793.442810,2777.576416 
	C803.934814,2776.345947 814.477539,2775.442139 824.909058,2773.822021 
	C853.387756,2769.398682 881.609497,2763.968018 909.014587,2754.576904 
	C930.597839,2747.180664 949.056396,2735.398438 963.950989,2718.336182 
	C968.364441,2713.280518 970.915771,2706.599121 974.314026,2699.224609 
	C973.548584,2698.768799 972.783203,2698.313232 972.234253,2697.430420 
	C972.234253,2697.430420 972.007019,2697.008545 971.979675,2697.015381 
	C971.979675,2697.015381 971.951538,2697.051758 973.520447,2696.918945 
	C980.762695,2695.587158 980.896118,2689.376709 983.456909,2683.282471 
	C986.692871,2674.103271 989.928833,2664.924316 993.957642,2654.536133 
	C1002.211792,2633.543213 1010.984985,2612.736572 1018.612427,2591.518311 
	C1034.662842,2546.868164 1048.875244,2501.619629 1060.175293,2455.510010 
	C1061.068604,2451.864502 1060.165283,2447.779053 1060.440308,2442.492920 
	C1062.794556,2432.809326 1065.543823,2423.200195 1067.392700,2413.421143 
	C1069.263672,2403.524414 1070.500244,2393.515381 1072.251831,2383.572266 
	C1087.415405,2297.490234 1092.593750,2210.619385 1091.518433,2123.312744 
	C1091.345093,2109.234131 1088.844849,2095.538818 1083.842773,2080.809326 
	C1080.905151,2073.838623 1078.150513,2066.783936 1074.992554,2059.914551 
	C1068.022827,2044.753662 1057.308228,2032.089233 1047.311523,2018.949097 
	C1044.774658,2015.614624 1040.055542,2011.410889 1040.753418,2008.775269 
	C1041.658203,2005.358276 1046.982422,2003.111572 1050.958984,1999.915161 
	C1050.463379,1998.446777 1049.687744,1996.148438 1048.809937,1993.547363 
	C1054.054565,1989.895874 1059.576782,1986.918213 1060.000000,1980.000000 
	C1060.000000,1980.000000 1060.014038,1979.981567 1060.894775,1979.586426 
	C1061.449463,1979.187988 1061.775513,1978.650757 1062.694214,1976.900391 
z"/>
<path fill="#FEFEFE" opacity="1.000000" stroke="none" 
	d="
M540.965454,2772.062988 
	C540.965454,2772.062988 540.149475,2772.012207 540.149475,2772.012207 
	C540.149475,2772.012207 539.332214,2772.033203 538.930298,2771.237793 
	C538.189331,2766.954834 535.628662,2766.498779 532.876099,2766.289062 
	C528.617310,2765.964600 524.359314,2765.628906 519.528809,2764.847168 
	C509.969055,2762.339600 501.039398,2759.972656 491.983795,2758.279785 
	C453.489746,2751.083008 422.227844,2732.536865 399.751709,2699.248779 
	C400.830383,2688.924316 397.511658,2680.964355 391.322418,2673.260254 
	C387.423462,2659.563232 383.777618,2646.526123 379.639404,2633.647461 
	C370.997864,2606.753662 362.769958,2579.697754 353.083160,2553.179199 
	C345.668915,2532.881836 339.519958,2512.268555 333.706116,2491.517578 
	C330.036865,2478.421143 326.757629,2465.215576 323.089417,2451.189453 
	C319.516815,2430.645508 316.093109,2410.981934 312.812744,2391.294678 
	C304.927826,2343.973145 300.119598,2296.322510 297.974121,2248.408203 
	C295.136414,2185.034180 301.487396,2122.336670 312.714050,2059.480957 
	C316.895020,2044.713013 320.553833,2030.440186 324.714081,2015.662842 
	C331.316376,1998.290771 337.450409,1981.435181 343.459900,1964.535278 
	C343.980316,1963.071899 343.678375,1961.316162 343.872498,1958.976807 
	C344.542175,1956.696655 345.073059,1955.126465 345.657196,1953.576416 
	C359.477539,1916.902466 373.677734,1880.365723 386.992279,1843.509033 
	C395.350311,1820.372559 400.826874,1796.394653 404.110229,1771.211792 
	C409.606995,1726.860718 415.708466,1683.293213 419.663940,1639.531738 
	C421.843658,1615.415894 421.426331,1590.930420 420.373413,1566.690063 
	C418.917847,1533.179077 410.416473,1500.833984 399.315033,1469.337524 
	C390.477295,1444.263794 390.427063,1419.135986 395.091003,1393.481201 
	C403.979645,1344.587524 428.172546,1303.904175 462.194916,1268.612549 
	C488.913208,1240.897461 519.439331,1217.795898 551.435425,1196.557129 
	C560.866760,1190.296753 570.248230,1183.957031 579.537842,1177.488770 
	C589.858887,1170.302490 594.537109,1160.082153 595.362183,1147.716797 
	C595.705933,1142.564209 594.443298,1138.665894 589.835327,1135.897827 
	C582.170105,1131.293091 579.541443,1124.022461 579.727966,1115.482544 
	C580.287964,1089.835938 580.613464,1064.179810 581.573181,1038.547852 
	C582.209412,1021.556213 590.245850,1011.227661 606.392395,1006.171570 
	C614.622681,1003.594360 623.161072,1001.788818 631.684509,1000.394104 
	C690.553406,990.761536 749.200623,993.128296 807.587646,1004.425354 
	C814.054443,1005.676636 820.510132,1007.849426 826.470764,1010.656921 
	C836.289795,1015.281921 841.929810,1023.631592 842.054626,1034.465454 
	C842.380737,1062.777954 842.160400,1091.097290 842.057007,1119.413574 
	C842.032898,1126.028809 839.576477,1131.514893 834.538330,1136.182495 
	C832.077942,1138.461792 829.891785,1142.099854 829.494080,1145.356445 
	C827.887756,1158.507568 830.669495,1170.662720 840.587708,1180.191284 
	C846.582947,1185.950806 853.042603,1191.225342 859.258728,1196.756958 
	C880.900696,1216.016113 903.377441,1234.431641 923.965027,1254.759766 
	C956.501953,1286.886597 982.512573,1323.837891 998.936951,1366.902222 
	C1009.809326,1395.409302 1015.104065,1425.241943 1018.637878,1456.188232 
	C1018.345703,1459.299561 1018.352051,1461.596313 1018.387024,1464.346191 
	C1018.621155,1465.387329 1018.968872,1465.873779 1019.496948,1466.951294 
	C1019.565491,1469.030640 1019.595886,1470.417358 1019.346802,1472.061157 
	C1019.296570,1472.933716 1019.525879,1473.549072 1019.784058,1475.051270 
	C1019.917908,1481.271240 1020.022888,1486.604614 1020.129395,1492.486450 
	C1020.211731,1493.391724 1020.292664,1493.748413 1020.344910,1494.739746 
	C1020.310425,1496.221802 1020.304565,1497.068970 1020.214233,1498.510864 
	C1020.621155,1500.144531 1021.112549,1501.183350 1021.648193,1502.853882 
	C1021.794067,1504.323730 1021.895569,1505.161865 1022.172119,1506.460327 
	C1022.711548,1507.507690 1023.226501,1507.894165 1023.906189,1508.089355 
	C1023.920349,1508.098511 1023.881348,1508.157104 1023.978943,1508.849365 
	C1024.942627,1510.934082 1025.665894,1512.444092 1026.698486,1513.699829 
	C1032.929932,1521.278198 1037.841064,1529.235107 1036.291504,1539.770996 
	C1036.098022,1541.087524 1038.221802,1542.744873 1039.477539,1545.081543 
	C1042.006958,1556.628296 1044.330444,1567.337524 1046.644043,1578.855347 
	C1047.775757,1584.393311 1048.917358,1589.122681 1050.002441,1594.705811 
	C1051.021973,1602.466431 1052.009155,1609.388672 1053.187866,1616.278198 
	C1066.075928,1691.611328 1073.953369,1767.482056 1074.769775,1843.891724 
	C1075.183472,1882.610596 1079.025513,1921.768677 1067.113281,1960.224609 
	C1063.941528,1964.756470 1061.086792,1968.800415 1058.865967,1973.166626 
	C1058.219971,1974.436768 1059.384766,1976.628052 1059.795166,1978.792847 
	C1059.870850,1979.188599 1060.014038,1979.981567 1060.014038,1979.981567 
	C1060.014038,1979.981567 1060.000000,1980.000000 1059.296387,1980.047119 
	C1053.095337,1984.755737 1047.597900,1989.417114 1041.638306,1994.181641 
	C1041.176025,1994.284668 1040.254028,1994.501587 1039.536011,1994.369873 
	C1036.015259,1994.007080 1034.170288,1994.949951 1034.066650,1998.560547 
	C1034.024536,1999.041748 1034.038696,2000.007690 1033.409180,2000.334717 
	C1029.447876,2003.559814 1029.205444,2006.859497 1031.717041,2010.337158 
	C1039.059570,2020.503662 1046.396484,2030.675293 1053.859253,2040.753296 
	C1064.030640,2054.489258 1075.117432,2067.722656 1076.608154,2085.866943 
	C1076.676514,2086.700928 1078.511353,2087.389404 1079.802734,2088.895020 
	C1082.016724,2101.734131 1085.144287,2113.777344 1085.617554,2125.924072 
	C1086.406128,2146.162109 1085.735596,2166.471924 1085.255127,2186.741699 
	C1083.463745,2262.306641 1076.256714,2337.303467 1061.046875,2411.427246 
	C1057.450684,2428.952393 1053.717896,2446.449219 1049.519775,2464.468994 
	C1047.007324,2473.019531 1045.125610,2481.086914 1043.021606,2489.096436 
	C1031.201294,2534.094482 1016.703003,2578.244629 1000.341431,2621.772461 
	C991.820312,2644.441895 982.527710,2666.821045 973.690430,2689.373047 
	C972.743774,2691.788818 972.513916,2694.485352 971.951538,2697.051758 
	C971.951538,2697.051758 971.979675,2697.015381 971.351929,2697.349365 
	C965.563721,2704.500244 960.755920,2711.622314 955.172363,2718.072998 
	C941.786865,2733.537598 924.591431,2743.231445 905.325317,2749.441406 
	C871.531616,2760.334229 837.187561,2768.519775 801.557312,2770.393066 
	C798.297485,2770.564209 795.086914,2771.672852 790.936401,2772.298584 
	C765.829773,2773.546143 741.645081,2775.782715 717.449219,2775.911865 
	C682.566040,2776.098145 647.654480,2775.263672 612.794250,2773.877441 
	C590.960510,2773.009033 569.206787,2770.218262 547.391785,2768.640381 
	C545.342957,2768.492432 543.111938,2770.862305 540.965454,2772.062988 
M902.922119,1537.540894 
	C903.481750,1537.238892 903.754700,1536.769897 903.876282,1536.010986 
	C903.876282,1536.010986 903.926636,1535.835571 905.296448,1535.749268 
	C907.495544,1533.823975 909.806213,1532.010132 911.867249,1529.947021 
	C914.894348,1526.917114 917.625549,1523.588623 920.688477,1520.598022 
	C932.521484,1509.044312 944.436035,1497.574097 957.097839,1485.699219 
	C957.583557,1485.341919 957.893738,1484.869507 958.886902,1483.714111 
	C959.307190,1483.179688 959.727478,1482.645142 961.231750,1481.309570 
	C964.865234,1476.178711 968.165894,1470.869995 976.155212,1473.424194 
	C979.608887,1474.528320 981.417969,1471.671265 982.640259,1466.632080 
	C982.328003,1461.079468 982.015686,1455.526733 981.866760,1448.276611 
	C977.385803,1399.554688 959.371948,1356.120605 930.734192,1316.765625 
	C911.982483,1290.996338 889.562134,1268.773071 865.432007,1248.142822 
	C849.988037,1234.938843 834.292358,1222.005859 819.284424,1208.320801 
	C799.230164,1190.034424 790.945435,1166.986328 793.526978,1139.928467 
	C794.409668,1130.677124 796.926331,1122.190796 803.608521,1115.539673 
	C806.973999,1112.189819 808.140381,1108.548950 808.105896,1103.936890 
	C807.963745,1084.945068 808.076782,1065.951660 808.040466,1046.958740 
	C808.036682,1045.006104 807.662659,1043.054321 807.367676,1040.206299 
	C743.692078,1026.289185 680.244446,1024.816284 616.322998,1039.735352 
	C615.653809,1061.473511 614.801575,1082.421143 614.587280,1103.375366 
	C614.555176,1106.518311 616.913391,1110.238037 619.205139,1112.738403 
	C624.105347,1118.084595 627.603516,1123.982178 628.584595,1131.115967 
	C632.735107,1161.293579 625.676575,1187.419067 600.313721,1206.464722 
	C593.136658,1211.854248 585.401855,1216.507935 577.865845,1221.411499 
	C541.451477,1245.105713 506.689575,1270.814941 477.909302,1303.756836 
	C452.391846,1332.964233 434.483887,1365.936768 428.893799,1404.796875 
	C426.605774,1420.702271 425.256470,1436.639893 432.173462,1453.539307 
	C433.300690,1457.326416 434.565338,1461.078857 435.532471,1464.906372 
	C441.176117,1487.241699 446.749969,1509.594604 452.220917,1533.608276 
	C456.987915,1570.699219 458.111053,1607.920288 454.521362,1645.127075 
	C451.582764,1675.585327 447.600891,1705.946777 443.840149,1736.321167 
	C437.274994,1789.345947 425.887573,1841.180908 405.964508,1890.977051 
	C395.488800,1917.160645 385.772156,1943.647827 374.758453,1970.968750 
	C369.833649,1985.142578 364.746399,1999.263306 360.089478,2013.524658 
	C358.799469,2017.475464 358.788300,2021.843750 357.910187,2027.213867 
	C357.818329,2028.024902 357.726440,2028.836060 356.591583,2030.609009 
	C355.818939,2033.774536 355.046265,2036.939941 353.989594,2041.448608 
	C353.818634,2042.810181 353.647675,2044.171875 352.668213,2046.449585 
	C352.411926,2047.623901 352.155640,2048.798096 351.686523,2051.113281 
	C351.569763,2052.563477 351.452972,2054.013916 350.485229,2056.897461 
	C349.203064,2062.022461 347.747253,2067.111328 346.666138,2072.278320 
	C337.783264,2114.732422 332.621002,2157.637451 331.966583,2201.012695 
	C330.578552,2293.012939 343.242493,2383.365479 364.426086,2472.680908 
	C365.334961,2476.513184 366.778168,2480.218506 367.887543,2485.636963 
	C370.087585,2493.956787 371.844666,2502.426758 374.605682,2510.556152 
	C377.687988,2519.631104 382.232513,2528.218750 385.169464,2537.331543 
	C392.297943,2559.449951 398.809998,2581.766357 405.677826,2603.969971 
	C409.098938,2615.030273 413.041443,2625.936523 416.221954,2637.062744 
	C419.119354,2647.198486 421.832794,2657.327393 427.978943,2666.044189 
	C427.978943,2666.044189 427.865570,2666.001953 427.890961,2667.248535 
	C428.057678,2668.057861 428.224396,2668.866943 428.227722,2671.220215 
	C429.304596,2679.456299 433.529144,2685.996094 439.081482,2691.930664 
	C453.313293,2707.142334 470.873413,2716.753174 490.808624,2721.842041 
	C503.590271,2725.104736 516.609802,2727.662354 529.664001,2729.568848 
	C543.698669,2731.618896 557.898376,2732.537842 573.690674,2734.128662 
	C580.960266,2734.839355 588.216248,2735.770508 595.501953,2736.222168 
	C625.025330,2738.052246 654.537537,2740.447998 684.092102,2741.288330 
	C720.029968,2742.310303 755.896362,2739.708252 791.616882,2735.709229 
	C803.805603,2734.344971 815.877258,2731.934814 829.758484,2730.134766 
	C839.564819,2728.686035 849.445801,2727.616699 859.161377,2725.706299 
	C877.390869,2722.121582 895.695435,2718.166016 911.888733,2708.669189 
	C929.117615,2698.565186 944.126038,2686.189941 946.546326,2662.936279 
	C953.745178,2645.800049 961.211487,2628.769775 968.066406,2611.497070 
	C974.684326,2594.821533 981.228699,2578.077637 986.795532,2561.034180 
	C993.800110,2539.588379 999.778687,2517.807861 1007.229248,2495.186523 
	C1008.070007,2491.438721 1008.910828,2487.691162 1010.104858,2482.462891 
	C1011.139771,2479.308838 1012.425842,2476.212891 1013.167847,2472.991455 
	C1017.265686,2455.200195 1021.265869,2437.386230 1025.222778,2419.562988 
	C1026.661133,2413.084717 1028.792236,2406.580322 1028.945557,2400.048828 
	C1029.086670,2394.038330 1028.111694,2388.244629 1032.539307,2383.228760 
	C1032.942749,2382.771729 1031.917603,2381.054199 1032.285522,2378.526367 
	C1032.776733,2376.251221 1033.343872,2373.989502 1033.748291,2371.698975 
	C1045.934082,2302.671875 1050.745972,2233.024902 1051.129028,2163.017822 
	C1051.200073,2150.040771 1050.975464,2137.055664 1050.563110,2124.084717 
	C1050.403687,2119.072266 1050.522949,2113.674561 1044.680176,2108.111084 
	C1047.093750,2199.250488 1043.484375,2288.024902 1025.937744,2376.954834 
	C1023.621460,2388.331543 1021.516296,2399.756348 1018.944641,2411.074951 
	C1013.651550,2434.372070 1007.937256,2457.574463 1002.705688,2480.885010 
	C992.276001,2527.357178 977.188965,2572.264404 958.589233,2616.083984 
	C951.087097,2633.758301 944.755676,2651.929443 936.536072,2670.118896 
	C934.682983,2672.323975 932.561829,2674.358643 931.030151,2676.767822 
	C927.326721,2682.592285 925.122559,2690.110840 920.080200,2694.174072 
	C912.023560,2700.666504 902.620239,2706.143799 892.935852,2709.794434 
	C880.640198,2714.429932 867.523010,2716.923096 854.707031,2720.127930 
	C845.846069,2722.343262 836.895386,2724.199463 826.338928,2726.210205 
	C806.367859,2728.753418 786.456116,2732.043213 766.409546,2733.636963 
	C744.990723,2735.339355 723.444702,2735.440674 700.948486,2735.198730 
	C697.314453,2735.540771 693.680420,2735.882812 688.170715,2736.086914 
	C666.768066,2735.465088 645.365356,2734.843018 623.395691,2733.365234 
	C622.268005,2733.601562 621.140320,2733.837891 618.287354,2733.937012 
	C602.893555,2732.719727 587.499756,2731.502686 570.633423,2729.533691 
	C557.871826,2727.703857 545.112366,2725.859131 532.348206,2724.047363 
	C514.270081,2721.480957 496.330658,2718.178467 479.253784,2711.542236 
	C468.649200,2707.420898 458.548462,2701.899658 451.581726,2692.633301 
	C444.834320,2683.658447 439.140381,2673.895752 432.862671,2664.560547 
	C431.628693,2662.725586 429.841949,2661.262207 428.215637,2658.045410 
	C425.993713,2649.536377 424.029694,2640.950195 421.503601,2632.532471 
	C412.350708,2602.032471 403.253693,2571.511475 393.657227,2541.149902 
	C386.666473,2519.032227 378.959229,2497.140137 371.425293,2475.197510 
	C370.967834,2473.864990 369.221771,2472.974854 368.102478,2470.595459 
	C366.934235,2462.912354 366.187195,2455.134766 364.496063,2447.568604 
	C362.128021,2436.973389 358.436218,2426.650879 356.449402,2415.999268 
	C354.163666,2403.745117 353.087616,2391.262939 351.543213,2378.873047 
	C348.048615,2350.837158 344.080444,2322.849121 341.215698,2294.748779 
	C334.159119,2225.530518 336.439087,2156.620850 349.351105,2088.145508 
	C350.720398,2080.884033 351.218384,2073.458496 353.303680,2065.376709 
	C354.078247,2064.385986 355.271179,2063.505371 355.565002,2062.387939 
	C360.492249,2043.650024 365.307159,2024.882446 371.131348,2005.097412 
	C373.779541,1997.265015 376.530060,1989.464355 378.977631,1981.569702 
	C379.397461,1980.215698 378.525543,1978.461060 379.301514,1975.927002 
	C380.099518,1974.488647 381.089874,1973.123413 381.667023,1971.601318 
	C394.055115,1938.932983 406.969025,1906.447876 418.544739,1873.493164 
	C426.137146,1851.878418 433.349091,1829.899658 437.922882,1807.510254 
	C444.377228,1775.915405 448.702667,1743.854370 453.087982,1711.875977 
	C459.105225,1667.997314 464.411011,1623.980957 461.750336,1579.552002 
	C460.799835,1563.680908 458.183624,1547.909424 456.574310,1530.579102 
	C452.754608,1514.390869 449.242004,1498.121704 445.010071,1482.041992 
	C442.062622,1470.842773 438.128204,1459.903320 434.627869,1447.240967 
	C433.942322,1439.968750 432.362152,1432.650879 432.731659,1425.432617 
	C434.075165,1399.187134 440.405640,1374.202759 452.698700,1350.759399 
	C469.095001,1319.490967 492.819244,1294.516479 519.312073,1271.834473 
	C543.926941,1250.760254 570.859497,1232.924072 598.094177,1215.505737 
	C626.920044,1197.069458 637.575195,1169.854004 635.484009,1136.793579 
	C634.841736,1126.639893 631.870911,1117.000977 624.175110,1109.750854 
	C620.588440,1106.372192 619.965149,1102.626343 620.158081,1098.088501 
	C620.809021,1082.778687 621.202942,1067.457886 621.746521,1052.143311 
	C621.838074,1049.562866 622.184570,1046.991455 622.403381,1044.526978 
	C682.491455,1031.272949 741.845703,1032.488403 801.019287,1045.077515 
	C801.550415,1046.701782 802.109436,1047.619995 802.113770,1048.540894 
	C802.199829,1066.863281 802.396729,1085.189209 802.077881,1103.505737 
	C802.026917,1106.434448 800.136414,1109.752197 798.186035,1112.149536 
	C791.850220,1119.936890 788.604919,1128.765137 787.629150,1138.639526 
	C784.798706,1167.282104 792.693054,1192.109375 814.128235,1211.842773 
	C825.148682,1221.988281 836.609375,1231.666870 848.067078,1241.323853 
	C873.063293,1262.391479 897.353577,1284.138672 917.743103,1309.896240 
	C949.004211,1349.387695 969.665771,1393.407471 974.217285,1444.195068 
	C971.570435,1447.091064 968.824341,1449.903320 966.295471,1452.898926 
	C958.764221,1461.820068 948.541077,1469.349976 950.307800,1483.189819 
	C950.349060,1483.513184 950.298645,1483.848389 950.204468,1484.205688 
	C950.204468,1484.205688 950.150513,1484.276855 948.601685,1484.175293 
	C940.593628,1486.212158 940.593628,1486.212158 939.368408,1495.162354 
	C930.910767,1500.108765 923.070251,1505.669922 917.287292,1513.899048 
	C915.295227,1516.733765 911.586731,1518.298584 909.152710,1520.901978 
	C905.890991,1524.390259 903.105713,1528.323975 898.928711,1532.718262 
	C895.121765,1537.221436 890.842224,1541.411499 887.608398,1546.294189 
	C881.270935,1555.862671 875.516174,1565.817017 868.764221,1576.189575 
	C868.290161,1576.665161 868.053345,1577.238770 867.656494,1578.816650 
	C867.656494,1578.816650 867.397522,1579.771973 866.127136,1580.190308 
	C859.881775,1586.119873 858.519958,1594.326050 856.437195,1602.037476 
	C855.416260,1605.817627 852.277039,1609.889038 855.559021,1615.530762 
	C855.130554,1618.403809 854.702087,1621.276855 853.940979,1625.652466 
	C849.602661,1652.589966 844.424194,1679.424561 841.106873,1706.487305 
	C834.859985,1757.449341 831.130920,1808.586426 835.164124,1860.821899 
	C834.902039,1861.756226 834.124817,1862.965698 834.455017,1863.583496 
	C839.499695,1873.024536 836.930542,1884.580444 842.887268,1893.764160 
	C843.570801,1894.817627 843.929321,1896.299805 843.891663,1897.566895 
	C843.695740,1904.166870 848.017151,1907.437622 853.528015,1910.375244 
	C853.614136,1905.484375 853.189697,1900.744507 851.962036,1896.222534 
	C849.545837,1887.322876 845.572754,1878.841675 845.710876,1869.285645 
	C845.736084,1867.540283 843.671692,1865.764771 842.158936,1862.197021 
	C837.382202,1815.995361 840.045593,1769.898315 845.118835,1723.956299 
	C848.653015,1691.951294 853.803284,1660.124756 859.500916,1627.476318 
	C860.418640,1621.724243 861.336365,1615.972168 863.265869,1609.208862 
	C866.097717,1600.079956 868.929565,1590.950928 872.425415,1580.622925 
	C878.281189,1571.423828 884.019775,1562.147095 890.041870,1553.058105 
	C893.090515,1548.456909 896.651184,1544.195068 900.716736,1539.402710 
	C901.186218,1539.055176 901.454224,1538.591187 901.803833,1537.839233 
	C901.803833,1537.839233 902.077209,1537.652588 902.922119,1537.540894 
M907.983215,1606.036133 
	C912.246094,1597.426514 916.509033,1588.817017 921.910583,1579.796997 
	C923.863831,1577.727417 925.817139,1575.657959 929.247986,1573.656738 
	C940.642944,1570.859497 945.027039,1562.072510 948.619751,1551.001343 
	C949.760864,1550.589844 950.902039,1550.178345 952.894226,1550.824463 
	C963.055847,1551.189087 970.486816,1547.299683 974.530640,1537.518677 
	C975.155640,1536.007080 977.299011,1534.721313 979.013916,1534.142944 
	C982.911804,1532.828613 986.979980,1532.019409 990.686340,1531.079102 
	C993.652954,1534.855225 996.081787,1538.945068 999.463501,1541.969482 
	C1002.814453,1544.966309 1005.724609,1547.706787 1006.144958,1552.478271 
	C1006.445740,1555.892822 1008.404358,1558.400146 1012.099426,1557.370605 
	C1016.252686,1556.213501 1016.533325,1552.584595 1015.282898,1549.228638 
	C1010.656555,1536.811890 1005.966797,1524.411011 1000.883911,1512.177368 
	C999.607788,1509.106079 996.777100,1506.680664 994.771057,1504.099976 
	C980.684326,1514.933472 967.542236,1524.939575 954.574890,1535.167480 
	C953.265686,1536.199829 953.011597,1538.569946 951.469482,1541.380615 
	C948.171753,1544.052124 944.916626,1546.778320 941.568420,1549.385010 
	C931.677917,1557.085083 922.104919,1565.037720 916.699951,1578.287598 
	C912.614990,1585.630737 908.530029,1592.973877 903.461609,1601.351562 
	C901.016296,1609.581909 898.570984,1617.812134 895.384827,1627.307739 
	C887.552002,1654.921387 884.220459,1683.302612 881.154114,1711.712524 
	C876.765991,1752.369385 873.508850,1793.104614 874.420288,1834.050537 
	C874.783081,1850.349487 875.890259,1866.589111 880.916443,1882.933716 
	C882.560669,1890.979004 883.963013,1898.992310 893.992554,1901.356689 
	C896.683350,1901.991089 899.315979,1904.260010 901.265686,1906.419434 
	C911.954041,1918.257568 926.877441,1922.622437 940.620972,1929.052368 
	C941.828308,1929.617188 943.529114,1929.127319 945.000732,1929.127319 
	C943.959167,1926.379761 942.410767,1924.980713 940.621521,1924.039673 
	C925.781006,1916.234985 910.335205,1909.775635 899.742615,1895.355103 
	C893.302185,1886.587158 888.124207,1877.808350 885.844604,1867.216187 
	C885.427856,1865.279663 883.734436,1863.617798 882.234375,1860.032593 
	C881.691956,1853.740845 880.896790,1847.459229 880.647217,1841.155884 
	C878.720398,1792.488403 883.150635,1744.141479 889.044189,1695.953369 
	C891.903625,1672.573853 896.841187,1649.448486 901.685364,1625.127075 
	C903.356628,1618.938965 905.027954,1612.750977 907.983215,1606.036133 
M1037.150391,1953.715820 
	C1042.778809,1945.954590 1045.112061,1937.055420 1045.933472,1927.695435 
	C1046.660034,1919.415283 1047.793579,1911.104126 1047.648804,1902.825928 
	C1047.032104,1867.578125 1046.534180,1832.313965 1044.957886,1797.102051 
	C1043.783569,1770.872681 1041.020630,1744.714478 1039.536987,1716.677979 
	C1039.826172,1702.066040 1038.294800,1687.761353 1032.346924,1672.793335 
	C1031.450806,1675.196045 1030.585693,1676.390137 1030.639038,1677.541748 
	C1031.455322,1695.134033 1032.369995,1712.721802 1033.366577,1730.304810 
	C1033.413940,1731.141724 1034.434937,1731.923218 1035.173340,1734.500122 
	C1037.096191,1767.361084 1039.662476,1800.200317 1040.772217,1833.088745 
	C1042.044189,1870.777222 1046.131714,1908.698364 1034.424438,1946.137085 
	C1028.894165,1951.244995 1023.098145,1956.101074 1017.929443,1961.551880 
	C1014.645142,1965.015625 1016.097351,1967.987793 1021.103394,1969.801514 
	C1026.147339,1964.785889 1031.167114,1959.794312 1037.150391,1953.715820 
z"/>
<path fill="#BC605B" opacity="1.000000" stroke="none" 
	d="
M1018.936401,1455.373901 
	C1015.104065,1425.241943 1009.809326,1395.409302 998.936951,1366.902222 
	C982.512573,1323.837891 956.501953,1286.886597 923.965027,1254.759766 
	C903.377441,1234.431641 880.900696,1216.016113 859.258728,1196.756958 
	C853.042603,1191.225342 846.582947,1185.950806 840.587708,1180.191284 
	C830.669495,1170.662720 827.887756,1158.507568 829.494080,1145.356445 
	C829.891785,1142.099854 832.077942,1138.461792 834.538330,1136.182495 
	C839.576477,1131.514893 842.032898,1126.028809 842.057007,1119.413574 
	C842.160400,1091.097290 842.380737,1062.777954 842.054626,1034.465454 
	C841.929810,1023.631592 836.289795,1015.281921 826.470764,1010.656921 
	C820.510132,1007.849426 814.054443,1005.676636 807.587646,1004.425354 
	C749.200623,993.128296 690.553406,990.761536 631.684509,1000.394104 
	C623.161072,1001.788818 614.622681,1003.594360 606.392395,1006.171570 
	C590.245850,1011.227661 582.209412,1021.556213 581.573181,1038.547852 
	C580.613464,1064.179810 580.287964,1089.835938 579.727966,1115.482544 
	C579.541443,1124.022461 582.170105,1131.293091 589.835327,1135.897827 
	C594.443298,1138.665894 595.705933,1142.564209 595.362183,1147.716797 
	C594.537109,1160.082153 589.858887,1170.302490 579.537842,1177.488770 
	C570.248230,1183.957031 560.866760,1190.296753 551.435425,1196.557129 
	C519.439331,1217.795898 488.913208,1240.897461 462.194916,1268.612549 
	C428.172546,1303.904175 403.979645,1344.587524 395.091003,1393.481201 
	C390.427063,1419.135986 390.477295,1444.263794 399.315033,1469.337524 
	C410.416473,1500.833984 418.917847,1533.179077 420.373413,1566.690063 
	C421.426331,1590.930420 421.843658,1615.415894 419.663940,1639.531738 
	C415.708466,1683.293213 409.606995,1726.860718 403.535339,1770.970947 
	C401.549347,1770.891235 400.429260,1770.349609 399.309204,1769.807983 
	C403.167511,1738.061523 407.292511,1706.344727 410.813904,1674.560913 
	C414.853363,1638.101440 417.526825,1601.555298 414.509460,1564.838989 
	C412.066864,1535.116211 406.024841,1506.053467 395.740479,1478.150635 
	C377.908508,1429.770264 386.209412,1383.550659 406.272217,1338.449951 
	C423.509247,1299.701660 450.769409,1268.328857 482.622559,1240.799316 
	C505.850037,1220.724487 530.565430,1202.648193 556.390259,1186.041870 
	C564.492432,1180.831909 572.190674,1174.964233 579.847595,1169.102173 
	C584.792053,1165.316650 587.197937,1159.930298 588.536316,1153.815186 
	C589.941711,1147.393799 589.347046,1142.612915 583.351440,1138.293823 
	C576.540894,1133.387695 573.549561,1125.678101 573.707886,1117.249878 
	C574.221069,1089.933472 574.399902,1062.592285 575.806824,1035.317505 
	C576.729004,1017.440002 587.446899,1005.778076 604.221375,1000.492493 
	C614.018616,997.405518 624.265869,995.481018 634.446655,993.921204 
	C691.339294,985.204529 748.046082,987.266357 804.519043,997.726990 
	C811.365723,998.995178 818.210144,1000.732788 824.752625,1003.092896 
	C839.455261,1008.396362 847.760071,1019.462158 848.092529,1034.818237 
	C848.697998,1062.789795 848.205322,1090.788086 847.966064,1118.773315 
	C847.892517,1127.368286 845.365723,1135.036987 838.505981,1141.063965 
	C836.572571,1142.762695 835.460449,1146.192749 835.258057,1148.923950 
	C834.484985,1159.358276 837.072754,1168.939087 845.151184,1176.092651 
	C858.862854,1188.234375 872.724854,1200.213623 886.738892,1212.005371 
	C917.964172,1238.279053 946.647705,1266.880249 970.182678,1300.437378 
	C999.937256,1342.862793 1016.859558,1389.945435 1022.317993,1441.317871 
	C1022.775330,1445.621704 1023.299683,1449.918457 1023.213562,1455.270020 
	C1021.401611,1456.005737 1020.169006,1455.689819 1018.936401,1455.373901 
z"/>
<path fill="#C96B64" opacity="1.000000" stroke="none" 
	d="
M312.191956,2059.975830 
	C301.487396,2122.336670 295.136414,2185.034180 297.974121,2248.408203 
	C300.119598,2296.322510 304.927826,2343.973145 312.812744,2391.294678 
	C316.093109,2410.981934 319.516815,2430.645508 322.456421,2451.312500 
	C320.850433,2452.778320 319.663330,2453.251709 318.476196,2453.725098 
	C308.852020,2409.468506 301.652679,2364.787842 297.670441,2319.704834 
	C294.629272,2285.275879 292.413086,2250.699707 291.757507,2216.152588 
	C290.884857,2170.164307 295.673523,2124.476318 303.563141,2079.144043 
	C304.643951,2072.934082 305.513885,2066.687012 307.805054,2059.963623 
	C310.149780,2059.638428 311.170868,2059.807129 312.191956,2059.975830 
z"/>
<path fill="#C96B64" opacity="1.000000" stroke="none" 
	d="
M1050.048096,2463.959229 
	C1053.717896,2446.449219 1057.450684,2428.952393 1061.046875,2411.427246 
	C1076.256714,2337.303467 1083.463745,2262.306641 1085.255127,2186.741699 
	C1085.735596,2166.471924 1086.406128,2146.162109 1085.617554,2125.924072 
	C1085.144287,2113.777344 1082.016724,2101.734131 1079.874634,2088.245117 
	C1078.855469,2083.346924 1078.702637,2080.452393 1083.783447,2082.355225 
	C1088.844849,2095.538818 1091.345093,2109.234131 1091.518433,2123.312744 
	C1092.593750,2210.619385 1087.415405,2297.490234 1072.251831,2383.572266 
	C1070.500244,2393.515381 1069.263672,2403.524414 1067.392700,2413.421143 
	C1065.543823,2423.200195 1062.794556,2432.809326 1059.883301,2443.865967 
	C1057.297363,2452.226562 1055.268677,2459.214111 1053.153564,2466.499512 
	C1051.928101,2465.497070 1050.988037,2464.728027 1050.048096,2463.959229 
z"/>
<path fill="#BC605B" opacity="1.000000" stroke="none" 
	d="
M1067.671753,1959.859497 
	C1079.025513,1921.768677 1075.183472,1882.610596 1074.769775,1843.891724 
	C1073.953369,1767.482056 1066.075928,1691.611328 1053.187866,1616.278198 
	C1052.009155,1609.388672 1051.021973,1602.466431 1050.135620,1593.974121 
	C1051.323975,1591.353027 1052.322632,1590.317261 1053.321289,1589.281372 
	C1057.264038,1611.182251 1061.794434,1632.996216 1065.046753,1654.999146 
	C1078.307861,1744.714722 1083.591309,1834.899658 1079.770142,1925.559692 
	C1079.235107,1938.253418 1077.389404,1950.716919 1071.522461,1963.147705 
	C1069.634033,1962.451904 1068.652954,1961.155762 1067.671753,1959.859497 
z"/>
<path fill="#EF9D94" opacity="1.000000" stroke="none" 
	d="
M1049.519775,2464.468994 
	C1050.988037,2464.728027 1051.928101,2465.497070 1053.153564,2466.499512 
	C1055.268677,2459.214111 1057.297363,2452.226562 1059.711426,2444.568359 
	C1060.165283,2447.779053 1061.068604,2451.864502 1060.175293,2455.510010 
	C1048.875244,2501.619629 1034.662842,2546.868164 1018.612427,2591.518311 
	C1010.984985,2612.736572 1002.211792,2633.543213 992.946167,2655.363525 
	C988.423767,2663.817627 984.788147,2671.391602 981.523499,2679.122314 
	C980.974121,2680.423340 982.027893,2682.401367 982.341003,2684.066406 
	C980.896118,2689.376709 980.762695,2695.587158 972.735962,2696.985352 
	C972.513916,2694.485352 972.743774,2691.788818 973.690430,2689.373047 
	C982.527710,2666.821045 991.820312,2644.441895 1000.341431,2621.772461 
	C1016.703003,2578.244629 1031.201294,2534.094482 1043.021606,2489.096436 
	C1045.125610,2481.086914 1047.007324,2473.019531 1049.519775,2464.468994 
z"/>
<path fill="#EF9D94" opacity="1.000000" stroke="none" 
	d="
M541.840149,2772.130371 
	C543.111938,2770.862305 545.342957,2768.492432 547.391785,2768.640381 
	C569.206787,2770.218262 590.960510,2773.009033 612.794250,2773.877441 
	C647.654480,2775.263672 682.566040,2776.098145 717.449219,2775.911865 
	C741.645081,2775.782715 765.829773,2773.546143 790.972778,2772.892822 
	C791.842468,2774.711914 791.758789,2775.889160 791.675110,2777.066406 
	C769.180542,2778.615723 746.698181,2780.385010 724.187134,2781.638428 
	C708.622192,2782.505371 692.997009,2783.410156 677.434937,2782.981934 
	C641.310913,2781.987793 605.175781,2780.680664 569.286926,2775.906006 
	C560.421997,2774.726807 551.571838,2773.436768 541.840149,2772.130371 
z"/>
<path fill="#EF9D94" opacity="1.000000" stroke="none" 
	d="
M318.374329,2454.549072 
	C319.663330,2453.251709 320.850433,2452.778320 322.670502,2452.181885 
	C326.757629,2465.215576 330.036865,2478.421143 333.706116,2491.517578 
	C339.519958,2512.268555 345.668915,2532.881836 353.083160,2553.179199 
	C362.769958,2579.697754 370.997864,2606.753662 379.639404,2633.647461 
	C383.777618,2646.526123 387.423462,2659.563232 390.936035,2673.663574 
	C390.110016,2675.906006 389.640320,2677.013184 388.927429,2678.693848 
	C386.491241,2672.785156 384.268341,2667.394043 382.045471,2662.002686 
	C377.865906,2649.791260 373.560364,2637.621094 369.536163,2625.358643 
	C363.441711,2606.787842 357.709015,2588.097168 351.515594,2569.559814 
	C345.008392,2550.083252 338.126221,2530.731689 331.441284,2511.313965 
	C330.262695,2507.890381 328.990906,2504.467773 328.201874,2500.946045 
	C324.802765,2485.775146 321.567444,2470.567383 318.374329,2454.549072 
z"/>
<path fill="#C96B64" opacity="1.000000" stroke="none" 
	d="
M398.922363,1770.448486 
	C400.429260,1770.349609 401.549347,1770.891235 403.244324,1771.673584 
	C400.826874,1796.394653 395.350311,1820.372559 386.992279,1843.509033 
	C373.677734,1880.365723 359.477539,1916.902466 345.657196,1953.576416 
	C345.073059,1955.126465 344.542175,1956.696655 343.363037,1959.406128 
	C341.119751,1963.091064 339.499908,1965.627319 336.985443,1969.564453 
	C336.199432,1966.315308 335.902649,1965.088379 335.605835,1963.861572 
	C350.575623,1923.378174 365.941772,1883.035156 380.361420,1842.356689 
	C388.561676,1819.223389 394.959290,1795.477051 398.922363,1770.448486 
z"/>
<path fill="#F4BAB7" opacity="1.000000" stroke="none" 
	d="
M792.558960,2777.321289 
	C791.758789,2775.889160 791.842468,2774.711914 791.889771,2772.940430 
	C795.086914,2771.672852 798.297485,2770.564209 801.557312,2770.393066 
	C837.187561,2768.519775 871.531616,2760.334229 905.325317,2749.441406 
	C924.591431,2743.231445 941.786865,2733.537598 955.172363,2718.072998 
	C960.755920,2711.622314 965.563721,2704.500244 971.365601,2697.345947 
	C972.007019,2697.008545 972.234253,2697.430420 972.391235,2698.195801 
	C973.138916,2699.528320 973.729614,2700.095459 974.320312,2700.662598 
	C970.915771,2706.599121 968.364441,2713.280518 963.950989,2718.336182 
	C949.056396,2735.398438 930.597839,2747.180664 909.014587,2754.576904 
	C881.609497,2763.968018 853.387756,2769.398682 824.909058,2773.822021 
	C814.477539,2775.442139 803.934814,2776.345947 792.558960,2777.321289 
z"/>
<path fill="#F4BAB7" opacity="1.000000" stroke="none" 
	d="
M399.669128,2700.112793 
	C422.227844,2732.536865 453.489746,2751.083008 491.983795,2758.279785 
	C501.039398,2759.972656 509.969055,2762.339600 519.514587,2765.488281 
	C520.142212,2767.413574 520.211975,2768.247070 520.281738,2769.080322 
	C512.460999,2767.979980 504.545349,2767.326904 496.837646,2765.693359 
	C475.690552,2761.210938 454.742401,2756.279785 436.243591,2744.011963 
	C419.689148,2733.032959 405.058990,2720.337891 394.197937,2702.025146 
	C393.547455,2698.823242 393.242035,2696.892822 392.936615,2694.962646 
	C393.522003,2694.706055 394.107361,2694.449463 394.692719,2694.192871 
	C396.351501,2696.166260 398.010284,2698.139648 399.669128,2700.112793 
z"/>
<path fill="#F5D5D6" opacity="1.000000" stroke="none" 
	d="
M1083.813110,2081.582275 
	C1078.702637,2080.452393 1078.855469,2083.346924 1079.595337,2087.495605 
	C1078.511353,2087.389404 1076.676514,2086.700928 1076.608154,2085.866943 
	C1075.117432,2067.722656 1064.030640,2054.489258 1053.859253,2040.753296 
	C1046.396484,2030.675293 1039.059570,2020.503662 1031.717041,2010.337158 
	C1029.205444,2006.859497 1029.447876,2003.559814 1034.059326,2000.615234 
	C1038.489868,2002.805908 1041.601929,2001.846924 1044.027466,1999.681641 
	C1047.168579,1996.877563 1046.224731,1994.756958 1042.100586,1994.078491 
	C1047.597900,1989.417114 1053.095337,1984.755737 1059.288940,1980.055664 
	C1059.576782,1986.918213 1054.054565,1989.895874 1048.809937,1993.547363 
	C1049.687744,1996.148438 1050.463379,1998.446777 1050.958984,1999.915161 
	C1046.982422,2003.111572 1041.658203,2005.358276 1040.753418,2008.775269 
	C1040.055542,2011.410889 1044.774658,2015.614624 1047.311523,2018.949097 
	C1057.308228,2032.089233 1068.022827,2044.753662 1074.992554,2059.914551 
	C1078.150513,2066.783936 1080.905151,2073.838623 1083.813110,2081.582275 
z"/>
<path fill="#F5D5D6" opacity="1.000000" stroke="none" 
	d="
M334.937134,1964.037598 
	C335.902649,1965.088379 336.199432,1966.315308 336.985443,1969.564453 
	C339.499908,1965.627319 341.119751,1963.091064 343.249023,1960.125488 
	C343.678375,1961.316162 343.980316,1963.071899 343.459900,1964.535278 
	C337.450409,1981.435181 331.316376,1998.290771 324.587433,2015.094727 
	C323.561279,2014.605713 323.171448,2014.170898 322.742493,2013.779053 
	C322.719086,2013.757568 322.270538,2014.055664 322.182831,2014.271484 
	C318.157806,2024.171387 314.150787,2034.078857 310.141846,2043.985474 
	C306.389679,2038.572021 309.695343,2032.931396 310.752563,2028.026245 
	C315.295532,2006.948975 323.653900,1987.045776 331.703491,1967.096436 
	C332.156647,1965.973267 333.395325,1965.167114 334.937134,1964.037598 
z"/>
<path fill="#F5D5D6" opacity="1.000000" stroke="none" 
	d="
M1039.271851,1544.244263 
	C1038.221802,1542.744873 1036.098022,1541.087524 1036.291504,1539.770996 
	C1037.841064,1529.235107 1032.929932,1521.278198 1026.698486,1513.699829 
	C1025.665894,1512.444092 1024.942627,1510.934082 1024.663086,1508.699219 
	C1028.994629,1505.276855 1029.184082,1502.040283 1027.971558,1497.837769 
	C1026.852295,1493.958496 1026.915649,1489.737915 1026.458130,1485.667725 
	C1027.296021,1486.152954 1028.605225,1486.441650 1028.901733,1487.152710 
	C1034.252930,1499.979858 1040.951294,1512.376099 1041.357666,1527.902100 
	C1040.280762,1534.187378 1039.776245,1539.215820 1039.271851,1544.244263 
z"/>
<path fill="#EF9D94" opacity="1.000000" stroke="none" 
	d="
M1039.477539,1545.081543 
	C1039.776245,1539.215820 1040.280762,1534.187378 1041.286133,1528.739868 
	C1041.986450,1532.475708 1041.016113,1536.934814 1045.432983,1539.860962 
	C1046.389526,1540.494629 1047.071411,1541.987427 1047.306885,1543.196167 
	C1049.595825,1554.954224 1055.274658,1566.192017 1052.104858,1578.882568 
	C1050.242920,1576.667847 1048.626953,1576.547607 1046.653931,1578.046875 
	C1044.330444,1567.337524 1042.006958,1556.628296 1039.477539,1545.081543 
z"/>
<path fill="#F5D5D6" opacity="1.000000" stroke="none" 
	d="
M399.751678,2699.248779 
	C398.010284,2698.139648 396.351501,2696.166260 394.692719,2694.192871 
	C394.107361,2694.449463 393.522003,2694.706055 392.936615,2694.962646 
	C393.242035,2696.892822 393.547455,2698.823242 393.886627,2701.419922 
	C392.776276,2701.514893 391.048920,2701.244629 390.576385,2700.327881 
	C384.559265,2688.649658 379.977325,2676.557617 381.495911,2662.530273 
	C384.268341,2667.394043 386.491241,2672.785156 388.927429,2678.693848 
	C389.640320,2677.013184 390.110016,2675.906006 390.966125,2674.395264 
	C397.511658,2680.964355 400.830383,2688.924316 399.751678,2699.248779 
z"/>
<path fill="#F4BAB7" opacity="1.000000" stroke="none" 
	d="
M1026.394165,1484.773315 
	C1026.915649,1489.737915 1026.852295,1493.958496 1027.971558,1497.837769 
	C1029.184082,1502.040283 1028.994629,1505.276855 1024.565430,1508.006958 
	C1023.881348,1508.157104 1023.920349,1508.098511 1023.739258,1507.624756 
	C1023.181335,1506.572754 1022.660950,1506.189087 1021.997070,1506.000000 
	C1021.895569,1505.161865 1021.794067,1504.323730 1021.751526,1502.252808 
	C1021.306580,1499.985352 1020.802673,1498.950806 1020.298706,1497.916138 
	C1020.304565,1497.068970 1020.310425,1496.221802 1020.632080,1494.502686 
	C1020.674561,1493.066406 1020.401184,1492.502075 1020.127869,1491.937866 
	C1020.022888,1486.604614 1019.917908,1481.271240 1019.821838,1474.456787 
	C1019.762573,1472.584839 1019.694458,1472.194336 1019.626343,1471.803955 
	C1019.595886,1470.417358 1019.565491,1469.030640 1019.501160,1466.486084 
	C1019.295166,1464.697266 1018.925537,1464.218872 1018.358398,1463.893188 
	C1018.352051,1461.596313 1018.345703,1459.299561 1018.637878,1456.188232 
	C1020.169006,1455.689819 1021.401611,1456.005737 1023.263672,1456.110596 
	C1024.705444,1465.226074 1025.517822,1474.552490 1026.394165,1484.773315 
z"/>
<path fill="#F4BAB7" opacity="1.000000" stroke="none" 
	d="
M310.063049,2044.704102 
	C314.150787,2034.078857 318.157806,2024.171387 322.182831,2014.271484 
	C322.270538,2014.055664 322.719086,2013.757568 322.742493,2013.779053 
	C323.171448,2014.170898 323.561279,2014.605713 324.086029,2015.599365 
	C320.553833,2030.440186 316.895020,2044.713013 312.714050,2059.480957 
	C311.170868,2059.807129 310.149780,2059.638428 308.355225,2059.397949 
	C307.736572,2057.393555 307.891418,2055.461426 308.520111,2052.530762 
	C309.481659,2051.033936 309.694885,2050.437500 309.633606,2049.742920 
	C309.750519,2048.302979 309.867432,2046.862915 310.063049,2044.704102 
z"/>
<path fill="#F4BAB7" opacity="1.000000" stroke="none" 
	d="
M1067.113281,1960.224609 
	C1068.652954,1961.155762 1069.634033,1962.451904 1071.265259,1963.806641 
	C1072.590576,1970.862061 1066.868286,1973.333740 1061.737061,1977.498657 
	C1060.426514,1978.196899 1060.072998,1978.296997 1059.719482,1978.397095 
	C1059.384766,1976.628052 1058.219971,1974.436768 1058.865967,1973.166626 
	C1061.086792,1968.800415 1063.941528,1964.756470 1067.113281,1960.224609 
z"/>
<path fill="#F4BAB7" opacity="1.000000" stroke="none" 
	d="
M982.898926,2683.674316 
	C982.027893,2682.401367 980.974121,2680.423340 981.523499,2679.122314 
	C984.788147,2671.391602 988.423767,2663.817627 992.549744,2655.968018 
	C989.928833,2664.924316 986.692871,2674.103271 982.898926,2683.674316 
z"/>
<path fill="#EF9D94" opacity="1.000000" stroke="none" 
	d="
M520.882446,2769.273682 
	C520.211975,2768.247070 520.142212,2767.413574 520.086792,2765.939453 
	C524.359314,2765.628906 528.617310,2765.964600 532.876099,2766.289062 
	C535.628662,2766.498779 538.189331,2766.954834 538.524536,2771.285645 
	C532.841553,2771.241455 527.162354,2770.354248 520.882446,2769.273682 
z"/>
<path fill="#C96B64" opacity="1.000000" stroke="none" 
	d="
M1046.644043,1578.855347 
	C1048.626953,1576.547607 1050.242920,1576.667847 1051.635254,1579.504272 
	C1052.354614,1582.524170 1052.791992,1585.122314 1053.275269,1588.500977 
	C1052.322632,1590.317261 1051.323975,1591.353027 1050.192139,1593.120605 
	C1048.917358,1589.122681 1047.775757,1584.393311 1046.644043,1578.855347 
z"/>
<path fill="#EF9D94" opacity="1.000000" stroke="none" 
	d="
M974.317139,2699.943604 
	C973.729614,2700.095459 973.138916,2699.528320 972.283020,2698.409424 
	C972.783203,2698.313232 973.548584,2698.768799 974.317139,2699.943604 
z"/>
<path fill="#F5D5D6" opacity="1.000000" stroke="none" 
	d="
M1059.795166,1978.792847 
	C1060.072998,1978.296997 1060.426514,1978.196899 1061.326416,1978.035889 
	C1061.775513,1978.650757 1061.449463,1979.187988 1060.454346,1979.783936 
	C1060.014038,1979.981567 1059.870850,1979.188599 1059.795166,1978.792847 
z"/>
<path fill="#F5D5D6" opacity="1.000000" stroke="none" 
	d="
M309.275818,2050.053711 
	C309.694885,2050.437500 309.481659,2051.033936 308.593170,2051.806152 
	C308.221191,2051.418213 308.463043,2050.846191 309.275818,2050.053711 
z"/>
<path fill="#BC605B" opacity="1.000000" stroke="none" 
	d="
M975.463867,1443.851685 
	C969.665771,1393.407471 949.004211,1349.387695 917.743103,1309.896240 
	C897.353577,1284.138672 873.063293,1262.391479 848.067078,1241.323853 
	C836.609375,1231.666870 825.148682,1221.988281 814.128235,1211.842773 
	C792.693054,1192.109375 784.798706,1167.282104 787.629150,1138.639526 
	C788.604919,1128.765137 791.850220,1119.936890 798.186035,1112.149536 
	C800.136414,1109.752197 802.026917,1106.434448 802.077881,1103.505737 
	C802.396729,1085.189209 802.199829,1066.863281 802.113770,1048.540894 
	C802.109436,1047.619995 801.550415,1046.701782 801.019287,1045.077515 
	C741.845703,1032.488403 682.491455,1031.272949 622.403381,1044.526978 
	C622.184570,1046.991455 621.838074,1049.562866 621.746521,1052.143311 
	C621.202942,1067.457886 620.809021,1082.778687 620.158081,1098.088501 
	C619.965149,1102.626343 620.588440,1106.372192 624.175110,1109.750854 
	C631.870911,1117.000977 634.841736,1126.639893 635.484009,1136.793579 
	C637.575195,1169.854004 626.920044,1197.069458 598.094177,1215.505737 
	C570.859497,1232.924072 543.926941,1250.760254 519.312073,1271.834473 
	C492.819244,1294.516479 469.095001,1319.490967 452.698700,1350.759399 
	C440.405640,1374.202759 434.075165,1399.187134 432.731659,1425.432617 
	C432.362152,1432.650879 433.942322,1439.968750 434.331177,1448.661377 
	C433.398651,1450.708618 432.762817,1451.335571 432.127014,1451.962524 
	C425.256470,1436.639893 426.605774,1420.702271 428.893799,1404.796875 
	C434.483887,1365.936768 452.391846,1332.964233 477.909302,1303.756836 
	C506.689575,1270.814941 541.451477,1245.105713 577.865845,1221.411499 
	C585.401855,1216.507935 593.136658,1211.854248 600.313721,1206.464722 
	C625.676575,1187.419067 632.735107,1161.293579 628.584595,1131.115967 
	C627.603516,1123.982178 624.105347,1118.084595 619.205139,1112.738403 
	C616.913391,1110.238037 614.555176,1106.518311 614.587280,1103.375366 
	C614.801575,1082.421143 615.653809,1061.473511 616.322998,1039.735352 
	C680.244446,1024.816284 743.692078,1026.289185 807.367676,1040.206299 
	C807.662659,1043.054321 808.036682,1045.006104 808.040466,1046.958740 
	C808.076782,1065.951660 807.963745,1084.945068 808.105896,1103.936890 
	C808.140381,1108.548950 806.973999,1112.189819 803.608521,1115.539673 
	C796.926331,1122.190796 794.409668,1130.677124 793.526978,1139.928467 
	C790.945435,1166.986328 799.230164,1190.034424 819.284424,1208.320801 
	C834.292358,1222.005859 849.988037,1234.938843 865.432007,1248.142822 
	C889.562134,1268.773071 911.982483,1290.996338 930.734192,1316.765625 
	C959.371948,1356.120605 977.385803,1399.554688 981.117310,1449.140381 
	C979.475891,1450.020874 978.583984,1450.037476 977.597656,1449.732910 
	C977.503235,1449.411865 977.680237,1448.766113 977.689392,1448.265625 
	C977.588867,1447.071167 977.244629,1446.525513 976.385254,1445.548584 
	C975.891174,1444.596436 975.677551,1444.224121 975.463867,1443.851685 
z"/>
<path fill="#C4645F" opacity="1.000000" stroke="none" 
	d="
M375.712708,1969.997925 
	C385.772156,1943.647827 395.488800,1917.160645 405.964508,1890.977051 
	C425.887573,1841.180908 437.274994,1789.345947 443.840149,1736.321167 
	C447.600891,1705.946777 451.582764,1675.585327 454.521362,1645.127075 
	C458.111053,1607.920288 456.987915,1570.699219 452.782318,1532.790771 
	C454.338379,1532.012939 455.333038,1532.052734 456.327698,1532.092529 
	C458.183624,1547.909424 460.799835,1563.680908 461.750336,1579.552002 
	C464.411011,1623.980957 459.105225,1667.997314 453.087982,1711.875977 
	C448.702667,1743.854370 444.377228,1775.915405 437.922882,1807.510254 
	C433.349091,1829.899658 426.137146,1851.878418 418.544739,1873.493164 
	C406.969025,1906.447876 394.055115,1938.932983 381.667023,1971.601318 
	C381.089874,1973.123413 380.099518,1974.488647 378.460999,1975.725098 
	C376.984589,1973.681396 376.348633,1971.839600 375.712708,1969.997925 
z"/>
<path fill="#C96B64" opacity="1.000000" stroke="none" 
	d="
M352.120605,2066.108887 
	C351.218384,2073.458496 350.720398,2080.884033 349.351105,2088.145508 
	C336.439087,2156.620850 334.159119,2225.530518 341.215698,2294.748779 
	C344.080444,2322.849121 348.048615,2350.837158 351.543213,2378.873047 
	C353.087616,2391.262939 354.163666,2403.745117 356.449402,2415.999268 
	C358.436218,2426.650879 362.128021,2436.973389 364.496063,2447.568604 
	C366.187195,2455.134766 366.934235,2462.912354 367.988770,2471.988770 
	C367.116364,2476.923096 372.717743,2480.405518 367.972473,2483.983154 
	C366.778168,2480.218506 365.334961,2476.513184 364.426086,2472.680908 
	C343.242493,2383.365479 330.578552,2293.012939 331.966583,2201.012695 
	C332.621002,2157.637451 337.783264,2114.732422 346.666138,2072.278320 
	C347.747253,2067.111328 349.203064,2062.022461 351.138733,2057.272217 
	C351.901672,2060.467529 352.011169,2063.288330 352.120605,2066.108887 
z"/>
<path fill="#EF9D94" opacity="1.000000" stroke="none" 
	d="
M937.891479,2669.874512 
	C944.755676,2651.929443 951.087097,2633.758301 958.589233,2616.083984 
	C977.188965,2572.264404 992.276001,2527.357178 1002.705688,2480.885010 
	C1007.937256,2457.574463 1013.651550,2434.372070 1018.944641,2411.074951 
	C1021.516296,2399.756348 1023.621460,2388.331543 1026.973145,2376.675781 
	C1029.190918,2377.571533 1030.373413,2378.746826 1031.555786,2379.921875 
	C1031.917603,2381.054199 1032.942749,2382.771729 1032.539307,2383.228760 
	C1028.111694,2388.244629 1029.086670,2394.038330 1028.945557,2400.048828 
	C1028.792236,2406.580322 1026.661133,2413.084717 1025.222778,2419.562988 
	C1021.265869,2437.386230 1017.265686,2455.200195 1013.167847,2472.991455 
	C1012.425842,2476.212891 1011.139771,2479.308838 1009.235962,2483.442383 
	C1007.644714,2488.338623 1006.922363,2492.255127 1006.199951,2496.171631 
	C999.778687,2517.807861 993.800110,2539.588379 986.795532,2561.034180 
	C981.228699,2578.077637 974.684326,2594.821533 968.066406,2611.497070 
	C961.211487,2628.769775 953.745178,2645.800049 945.508179,2663.795654 
	C942.725159,2667.915527 940.980225,2671.175781 938.622986,2675.580322 
	C938.277954,2672.888916 938.084717,2671.381836 937.891479,2669.874512 
z"/>
<path fill="#C4645F" opacity="1.000000" stroke="none" 
	d="
M1031.920654,2379.224121 
	C1030.373413,2378.746826 1029.190918,2377.571533 1027.433716,2376.135254 
	C1043.484375,2288.024902 1047.093750,2199.250488 1044.680176,2108.111084 
	C1050.522949,2113.674561 1050.403687,2119.072266 1050.563110,2124.084717 
	C1050.975464,2137.055664 1051.200073,2150.040771 1051.129028,2163.017822 
	C1050.745972,2233.024902 1045.934082,2302.671875 1033.748291,2371.698975 
	C1033.343872,2373.989502 1032.776733,2376.251221 1031.920654,2379.224121 
z"/>
<path fill="#C4645F" opacity="1.000000" stroke="none" 
	d="
M881.858704,1882.045654 
	C875.890259,1866.589111 874.783081,1850.349487 874.420288,1834.050537 
	C873.508850,1793.104614 876.765991,1752.369385 881.154114,1711.712524 
	C884.220459,1683.302612 887.552002,1654.921387 896.540527,1626.673218 
	C898.743469,1626.095215 899.790710,1626.151611 900.837891,1626.208130 
	C896.841187,1649.448486 891.903625,1672.573853 889.044189,1695.953369 
	C883.150635,1744.141479 878.720398,1792.488403 880.647217,1841.155884 
	C880.896790,1847.459229 881.691956,1853.740845 882.318604,1861.755127 
	C882.964722,1867.709839 883.828979,1871.933228 883.952576,1876.177979 
	C884.008911,1878.111938 882.601929,1880.088501 881.858704,1882.045654 
z"/>
<path fill="#C4645F" opacity="1.000000" stroke="none" 
	d="
M836.308472,1859.950195 
	C831.130920,1808.586426 834.859985,1757.449341 841.106873,1706.487305 
	C844.424194,1679.424561 849.602661,1652.589966 854.759033,1624.928345 
	C856.461914,1625.542358 857.346741,1626.880493 858.231628,1628.218506 
	C853.803284,1660.124756 848.653015,1691.951294 845.118835,1723.956299 
	C840.045593,1769.898315 837.382202,1815.995361 841.683472,1863.276611 
	C839.574768,1862.887451 837.941589,1861.418823 836.308472,1859.950195 
z"/>
<path fill="#C4645F" opacity="1.000000" stroke="none" 
	d="
M1038.965332,1718.524536 
	C1041.020630,1744.714478 1043.783569,1770.872681 1044.957886,1797.102051 
	C1046.534180,1832.313965 1047.032104,1867.578125 1047.648804,1902.825928 
	C1047.793579,1911.104126 1046.660034,1919.415283 1045.933472,1927.695435 
	C1045.112061,1937.055420 1042.778809,1945.954590 1036.186279,1953.779541 
	C1035.398438,1951.198364 1035.574585,1948.553711 1035.750732,1945.908936 
	C1046.131714,1908.698364 1042.044189,1870.777222 1040.772217,1833.088745 
	C1039.662476,1800.200317 1037.096191,1767.361084 1035.344971,1732.763428 
	C1035.622314,1728.143921 1035.407104,1725.196899 1035.966309,1722.404907 
	C1036.253906,1720.968872 1037.921509,1719.809204 1038.965332,1718.524536 
z"/>
<path fill="#EF9D94" opacity="1.000000" stroke="none" 
	d="
M367.929993,2484.810059 
	C372.717743,2480.405518 367.116364,2476.923096 367.975128,2472.630371 
	C369.221771,2472.974854 370.967834,2473.864990 371.425293,2475.197510 
	C378.959229,2497.140137 386.666473,2519.032227 393.657227,2541.149902 
	C403.253693,2571.511475 412.350708,2602.032471 421.503601,2632.532471 
	C424.029694,2640.950195 425.993713,2649.536377 428.131378,2659.648193 
	C428.002167,2662.883789 427.957184,2664.516846 427.912201,2666.149658 
	C421.832794,2657.327393 419.119354,2647.198486 416.221954,2637.062744 
	C413.041443,2625.936523 409.098938,2615.030273 405.677826,2603.969971 
	C398.809998,2581.766357 392.297943,2559.449951 385.169464,2537.331543 
	C382.232513,2528.218750 377.687988,2519.631104 374.605682,2510.556152 
	C371.844666,2502.426758 370.087585,2493.956787 367.929993,2484.810059 
z"/>
<path fill="#F5D5D6" opacity="1.000000" stroke="none" 
	d="
M952.267883,1540.319214 
	C953.011597,1538.569946 953.265686,1536.199829 954.574890,1535.167480 
	C967.542236,1524.939575 980.684326,1514.933472 994.771057,1504.099976 
	C996.777100,1506.680664 999.607788,1509.106079 1000.883911,1512.177368 
	C1005.966797,1524.411011 1010.656555,1536.811890 1015.282898,1549.228638 
	C1016.533325,1552.584595 1016.252686,1556.213501 1012.099426,1557.370605 
	C1008.404358,1558.400146 1006.445740,1555.892822 1006.144958,1552.478271 
	C1005.724609,1547.706787 1002.814453,1544.966309 999.463501,1541.969482 
	C996.081787,1538.945068 993.652954,1534.855225 990.686340,1531.079102 
	C986.979980,1532.019409 982.911804,1532.828613 979.013916,1534.142944 
	C977.299011,1534.721313 975.155640,1536.007080 974.530640,1537.518677 
	C970.486816,1547.299683 963.055847,1551.189087 952.724487,1549.691162 
	C952.459167,1545.811768 952.363525,1543.065430 952.267883,1540.319214 
z"/>
<path fill="#EF9D94" opacity="1.000000" stroke="none" 
	d="
M623.962708,2734.221191 
	C645.365356,2734.843018 666.768066,2735.465088 689.620117,2736.655762 
	C694.697754,2736.896729 698.325928,2736.568604 701.954163,2736.240723 
	C723.444702,2735.440674 744.990723,2735.339355 766.409546,2733.636963 
	C786.456116,2732.043213 806.367859,2728.753418 827.156494,2726.843262 
	C827.983521,2728.318359 827.992981,2729.160400 828.002441,2730.002686 
	C815.877258,2731.934814 803.805603,2734.344971 791.616882,2735.709229 
	C755.896362,2739.708252 720.029968,2742.310303 684.092102,2741.288330 
	C654.537537,2740.447998 625.025330,2738.052246 595.501953,2736.222168 
	C588.216248,2735.770508 580.960266,2734.839355 572.861389,2733.427734 
	C572.056763,2731.913086 572.081421,2731.099365 572.106079,2730.285645 
	C587.499756,2731.502686 602.893555,2732.719727 619.432983,2734.439209 
	C621.706604,2734.701172 622.834656,2734.461182 623.962708,2734.221191 
z"/>
<path fill="#F4BAB7" opacity="1.000000" stroke="none" 
	d="
M571.369751,2729.909668 
	C572.081421,2731.099365 572.056763,2731.913086 572.029114,2733.338623 
	C557.898376,2732.537842 543.698669,2731.618896 529.664001,2729.568848 
	C516.609802,2727.662354 503.590271,2725.104736 490.808624,2721.842041 
	C470.873413,2716.753174 453.313293,2707.142334 439.081482,2691.930664 
	C433.529144,2685.996094 429.304596,2679.456299 428.668549,2670.145996 
	C428.694763,2668.048340 428.280151,2667.025146 427.865540,2666.001953 
	C427.865570,2666.001953 427.978943,2666.044189 427.945557,2666.096924 
	C427.957184,2664.516846 428.002167,2662.883789 428.178650,2660.439209 
	C429.841949,2661.262207 431.628693,2662.725586 432.862671,2664.560547 
	C439.140381,2673.895752 444.834320,2683.658447 451.581726,2692.633301 
	C458.548462,2701.899658 468.649200,2707.420898 479.253784,2711.542236 
	C496.330658,2718.178467 514.270081,2721.480957 532.348206,2724.047363 
	C545.112366,2725.859131 557.871826,2727.703857 571.369751,2729.909668 
z"/>
<path fill="#F4BAB7" opacity="1.000000" stroke="none" 
	d="
M828.880493,2730.068848 
	C827.992981,2729.160400 827.983521,2728.318359 827.979370,2726.846191 
	C836.895386,2724.199463 845.846069,2722.343262 854.707031,2720.127930 
	C867.523010,2716.923096 880.640198,2714.429932 892.935852,2709.794434 
	C902.620239,2706.143799 912.023560,2700.666504 920.080200,2694.174072 
	C925.122559,2690.110840 927.326721,2682.592285 931.030151,2676.767822 
	C932.561829,2674.358643 934.682983,2672.323975 937.213745,2669.996582 
	C938.084717,2671.381836 938.277954,2672.888916 938.622986,2675.580322 
	C940.980225,2671.175781 942.725159,2667.915527 945.016968,2664.289062 
	C944.126038,2686.189941 929.117615,2698.565186 911.888733,2708.669189 
	C895.695435,2718.166016 877.390869,2722.121582 859.161377,2725.706299 
	C849.445801,2727.616699 839.564819,2728.686035 828.880493,2730.068848 
z"/>
<path fill="#F5D5D6" opacity="1.000000" stroke="none" 
	d="
M881.387573,1882.489746 
	C882.601929,1880.088501 884.008911,1878.111938 883.952576,1876.177979 
	C883.828979,1871.933228 882.964722,1867.709839 882.516602,1862.653564 
	C883.734436,1863.617798 885.427856,1865.279663 885.844604,1867.216187 
	C888.124207,1877.808350 893.302185,1886.587158 899.742615,1895.355103 
	C910.335205,1909.775635 925.781006,1916.234985 940.621521,1924.039673 
	C942.410767,1924.980713 943.959167,1926.379761 945.000732,1929.127319 
	C943.529114,1929.127319 941.828308,1929.617188 940.620972,1929.052368 
	C926.877441,1922.622437 911.954041,1918.257568 901.265686,1906.419434 
	C899.315979,1904.260010 896.683350,1901.991089 893.992554,1901.356689 
	C883.963013,1898.992310 882.560669,1890.979004 881.387573,1882.489746 
z"/>
<path fill="#F5D5D6" opacity="1.000000" stroke="none" 
	d="
M974.840576,1444.023438 
	C975.677551,1444.224121 975.891174,1444.596436 976.357300,1446.041260 
	C976.779907,1447.785278 977.136780,1448.336060 977.680237,1448.766113 
	C977.680237,1448.766113 977.503235,1449.411865 977.570007,1450.620361 
	C977.781067,1455.453491 978.037231,1459.078491 978.034973,1462.703125 
	C978.033142,1465.714722 978.957520,1467.851685 982.163452,1468.463013 
	C981.417969,1471.671265 979.608887,1474.528320 976.155212,1473.424194 
	C968.165894,1470.869995 964.865234,1476.178711 960.359863,1481.376465 
	C959.001465,1482.389526 958.514954,1483.335571 958.028381,1484.281738 
	C957.893738,1484.869507 957.583557,1485.341919 956.102661,1485.645996 
	C953.501953,1485.121094 951.896423,1484.649536 950.290894,1484.177979 
	C950.298645,1483.848389 950.349060,1483.513184 950.307800,1483.189819 
	C948.541077,1469.349976 958.764221,1461.820068 966.295471,1452.898926 
	C968.824341,1449.903320 971.570435,1447.091064 974.840576,1444.023438 
z"/>
<path fill="#F4BAB7" opacity="1.000000" stroke="none" 
	d="
M950.247681,1484.191895 
	C951.896423,1484.649536 953.501953,1485.121094 955.713867,1485.832764 
	C944.436035,1497.574097 932.521484,1509.044312 920.688477,1520.598022 
	C917.625549,1523.588623 914.894348,1526.917114 911.867249,1529.947021 
	C909.806213,1532.010132 907.495544,1533.823975 904.349060,1535.310059 
	C902.306458,1533.936157 901.211182,1533.001343 900.115967,1532.066528 
	C903.105713,1528.323975 905.890991,1524.390259 909.152710,1520.901978 
	C911.586731,1518.298584 915.295227,1516.733765 917.287292,1513.899048 
	C923.070251,1505.669922 930.910767,1500.108765 940.393799,1494.339722 
	C944.329590,1490.437012 947.240051,1487.356934 950.150513,1484.276855 
	C950.150513,1484.276855 950.204468,1484.205688 950.247681,1484.191895 
z"/>
<path fill="#C96B64" opacity="1.000000" stroke="none" 
	d="
M456.450989,1531.335815 
	C455.333038,1532.052734 454.338379,1532.012939 452.845551,1531.957397 
	C446.749969,1509.594604 441.176117,1487.241699 435.532471,1464.906372 
	C434.565338,1461.078857 433.300690,1457.326416 432.150208,1452.750977 
	C432.762817,1451.335571 433.398651,1450.708618 434.334564,1449.464844 
	C438.128204,1459.903320 442.062622,1470.842773 445.010071,1482.041992 
	C449.242004,1498.121704 452.754608,1514.390869 456.450989,1531.335815 
z"/>
<path fill="#F5D5D6" opacity="1.000000" stroke="none" 
	d="
M835.736267,1860.385986 
	C837.941589,1861.418823 839.574768,1862.887451 841.889893,1864.179688 
	C843.671692,1865.764771 845.736084,1867.540283 845.710876,1869.285645 
	C845.572754,1878.841675 849.545837,1887.322876 851.962036,1896.222534 
	C853.189697,1900.744507 853.614136,1905.484375 853.528015,1910.375244 
	C848.017151,1907.437622 843.695740,1904.166870 843.891663,1897.566895 
	C843.929321,1896.299805 843.570801,1894.817627 842.887268,1893.764160 
	C836.930542,1884.580444 839.499695,1873.024536 834.455017,1863.583496 
	C834.124817,1862.965698 834.902039,1861.756226 835.736267,1860.385986 
z"/>
<path fill="#EF9D94" opacity="1.000000" stroke="none" 
	d="
M1039.251221,1717.601318 
	C1037.921509,1719.809204 1036.253906,1720.968872 1035.966309,1722.404907 
	C1035.407104,1725.196899 1035.622314,1728.143921 1035.259644,1731.878662 
	C1034.434937,1731.923218 1033.413940,1731.141724 1033.366577,1730.304810 
	C1032.369995,1712.721802 1031.455322,1695.134033 1030.639038,1677.541748 
	C1030.585693,1676.390137 1031.450806,1675.196045 1032.346924,1672.793335 
	C1038.294800,1687.761353 1039.826172,1702.066040 1039.251221,1717.601318 
z"/>
<path fill="#EF9D94" opacity="1.000000" stroke="none" 
	d="
M899.522339,1532.392334 
	C901.211182,1533.001343 902.306458,1533.936157 903.664185,1535.353271 
	C903.926636,1535.835571 903.876282,1536.010986 903.423950,1536.183960 
	C902.488159,1536.660889 902.190063,1537.092773 902.077209,1537.652588 
	C902.077209,1537.652588 901.803833,1537.839233 901.284973,1538.091064 
	C900.301086,1538.710449 900.039124,1539.189453 899.980347,1539.779785 
	C896.651184,1544.195068 893.090515,1548.456909 890.041870,1553.058105 
	C884.019775,1562.147095 878.281189,1571.423828 871.537598,1581.003784 
	C869.565613,1580.847168 868.481567,1580.309570 867.397522,1579.771973 
	C867.397522,1579.771973 867.656494,1578.816650 868.290039,1578.125732 
	C869.458496,1576.937256 869.657410,1576.329590 869.520264,1575.611572 
	C875.516174,1565.817017 881.270935,1555.862671 887.608398,1546.294189 
	C890.842224,1541.411499 895.121765,1537.221436 899.522339,1532.392334 
z"/>
<path fill="#F4BAB7" opacity="1.000000" stroke="none" 
	d="
M375.235596,1970.483398 
	C376.348633,1971.839600 376.984589,1973.681396 377.935425,1976.207275 
	C378.525543,1978.461060 379.397461,1980.215698 378.977631,1981.569702 
	C376.530060,1989.464355 373.779541,1997.265015 370.524292,2005.027466 
	C369.810516,2004.648682 369.768402,2004.289185 369.578186,2004.045654 
	C369.401825,2003.820068 368.839203,2003.574463 368.834412,2003.582031 
	C367.856842,2005.132446 366.751282,2006.630859 365.998840,2008.289307 
	C363.330627,2014.170044 360.783417,2020.105713 358.190369,2026.020508 
	C358.788300,2021.843750 358.799469,2017.475464 360.089478,2013.524658 
	C364.746399,1999.263306 369.833649,1985.142578 375.235596,1970.483398 
z"/>
<path fill="#EF9D94" opacity="1.000000" stroke="none" 
	d="
M358.050293,2026.617188 
	C360.783417,2020.105713 363.330627,2014.170044 365.998840,2008.289307 
	C366.751282,2006.630859 367.856842,2005.132446 368.834412,2003.582031 
	C368.839203,2003.574463 369.401825,2003.820068 369.578186,2004.045654 
	C369.768402,2004.289185 369.810516,2004.648682 370.032166,2005.539551 
	C365.307159,2024.882446 360.492249,2043.650024 355.565002,2062.387939 
	C355.271179,2063.505371 354.078247,2064.385986 352.712158,2065.742676 
	C352.011169,2063.288330 351.901672,2060.467529 351.564209,2056.555664 
	C351.452972,2054.013916 351.569763,2052.563477 352.303497,2050.155518 
	C353.105896,2047.976318 353.291290,2046.754883 353.476715,2045.533447 
	C353.647675,2044.171875 353.818634,2042.810181 354.826599,2040.546753 
	C356.320618,2036.312256 356.977600,2032.979736 357.634583,2029.647095 
	C357.726440,2028.836060 357.818329,2028.024902 358.050293,2026.617188 
z"/>
<path fill="#F4BAB7" opacity="1.000000" stroke="none" 
	d="
M951.868652,1540.849854 
	C952.363525,1543.065430 952.459167,1545.811768 952.299011,1549.162354 
	C950.902039,1550.178345 949.760864,1550.589844 947.635864,1551.761963 
	C940.358093,1559.544434 934.064209,1566.566406 927.770386,1573.588501 
	C925.817139,1575.657959 923.863831,1577.727417 920.703613,1579.715332 
	C918.936462,1578.912109 918.376160,1578.190552 917.815857,1577.468872 
	C922.104919,1565.037720 931.677917,1557.085083 941.568420,1549.385010 
	C944.916626,1546.778320 948.171753,1544.052124 951.868652,1540.849854 
z"/>
<path fill="#F4BAB7" opacity="1.000000" stroke="none" 
	d="
M866.762329,1579.981201 
	C868.481567,1580.309570 869.565613,1580.847168 871.205566,1581.603271 
	C868.929565,1590.950928 866.097717,1600.079956 862.388489,1609.305298 
	C859.582520,1610.962524 857.653931,1612.523315 855.725342,1614.083984 
	C852.277039,1609.889038 855.416260,1605.817627 856.437195,1602.037476 
	C858.519958,1594.326050 859.881775,1586.119873 866.762329,1579.981201 
z"/>
<path fill="#F5D5D6" opacity="1.000000" stroke="none" 
	d="
M1035.087646,1946.022949 
	C1035.574585,1948.553711 1035.398438,1951.198364 1035.704590,1954.322998 
	C1031.167114,1959.794312 1026.147339,1964.785889 1021.103394,1969.801514 
	C1016.097351,1967.987793 1014.645142,1965.015625 1017.929443,1961.551880 
	C1023.098145,1956.101074 1028.894165,1951.244995 1035.087646,1946.022949 
z"/>
<path fill="#EF9D94" opacity="1.000000" stroke="none" 
	d="
M917.257935,1577.878174 
	C918.376160,1578.190552 918.936462,1578.912109 920.134338,1579.920654 
	C916.509033,1588.817017 912.246094,1597.426514 907.123047,1605.639893 
	C905.656921,1603.601440 905.050964,1601.959229 904.445068,1600.317017 
	C908.530029,1592.973877 912.614990,1585.630737 917.257935,1577.878174 
z"/>
<path fill="#C96B64" opacity="1.000000" stroke="none" 
	d="
M903.953369,1600.834229 
	C905.050964,1601.959229 905.656921,1603.601440 906.481079,1605.903320 
	C905.027954,1612.750977 903.356628,1618.938965 901.261597,1625.667603 
	C899.790710,1626.151611 898.743469,1626.095215 896.911011,1626.040527 
	C898.570984,1617.812134 901.016296,1609.581909 903.953369,1600.834229 
z"/>
<path fill="#F5D5D6" opacity="1.000000" stroke="none" 
	d="
M928.509155,1573.622559 
	C934.064209,1566.566406 940.358093,1559.544434 947.234070,1552.222656 
	C945.027039,1562.072510 940.642944,1570.859497 928.509155,1573.622559 
z"/>
<path fill="#EF9D94" opacity="1.000000" stroke="none" 
	d="
M855.642212,1614.807373 
	C857.653931,1612.523315 859.582520,1610.962524 861.882568,1609.810913 
	C861.336365,1615.972168 860.418640,1621.724243 858.866211,1627.847412 
	C857.346741,1626.880493 856.461914,1625.542358 854.925293,1624.177002 
	C854.702087,1621.276855 855.130554,1618.403809 855.642212,1614.807373 
z"/>
<path fill="#C96B64" opacity="1.000000" stroke="none" 
	d="
M982.401855,1467.547607 
	C978.957520,1467.851685 978.033142,1465.714722 978.034973,1462.703125 
	C978.037231,1459.078491 977.781067,1455.453491 977.664429,1450.941406 
	C978.583984,1450.037476 979.475891,1450.020874 981.035645,1449.989258 
	C982.015686,1455.526733 982.328003,1461.079468 982.401855,1467.547607 
z"/>
<path fill="#F5D5D6" opacity="1.000000" stroke="none" 
	d="
M949.376099,1484.226074 
	C947.240051,1487.356934 944.329590,1490.437012 940.839844,1493.808105 
	C940.593628,1486.212158 940.593628,1486.212158 949.376099,1484.226074 
z"/>
<path fill="#F4BAB7" opacity="1.000000" stroke="none" 
	d="
M1041.638306,1994.181641 
	C1046.224731,1994.756958 1047.168579,1996.877563 1044.027466,1999.681641 
	C1041.601929,2001.846924 1038.489868,2002.805908 1034.688843,2000.288208 
	C1034.038696,2000.007690 1034.024536,1999.041748 1034.745361,1998.540771 
	C1037.062012,1996.860352 1038.658081,1995.680908 1040.254028,1994.501587 
	C1040.254028,1994.501587 1041.176025,1994.284668 1041.638306,1994.181641 
z"/>
<path fill="#F4BAB7" opacity="1.000000" stroke="none" 
	d="
M701.451294,2735.719727 
	C698.325928,2736.568604 694.697754,2736.896729 690.557983,2736.724609 
	C693.680420,2735.882812 697.314453,2735.540771 701.451294,2735.719727 
z"/>
<path fill="#F4BAB7" opacity="1.000000" stroke="none" 
	d="
M1006.714600,2495.679199 
	C1006.922363,2492.255127 1007.644714,2488.338623 1009.059326,2484.182617 
	C1008.910828,2487.691162 1008.070007,2491.438721 1006.714600,2495.679199 
z"/>
<path fill="#F4BAB7" opacity="1.000000" stroke="none" 
	d="
M357.113098,2030.128052 
	C356.977600,2032.979736 356.320618,2036.312256 354.968597,2039.875244 
	C355.046265,2036.939941 355.818939,2033.774536 357.113098,2030.128052 
z"/>
<path fill="#F5D5D6" opacity="1.000000" stroke="none" 
	d="
M1039.536011,1994.369873 
	C1038.658081,1995.680908 1037.062012,1996.860352 1034.787476,1998.059570 
	C1034.170288,1994.949951 1036.015259,1994.007080 1039.536011,1994.369873 
z"/>
<path fill="#F4BAB7" opacity="1.000000" stroke="none" 
	d="
M623.679199,2733.793213 
	C622.834656,2734.461182 621.706604,2734.701172 620.295532,2734.507812 
	C621.140320,2733.837891 622.268005,2733.601562 623.679199,2733.793213 
z"/>
<path fill="#F4BAB7" opacity="1.000000" stroke="none" 
	d="
M958.457642,1483.997925 
	C958.514954,1483.335571 959.001465,1482.389526 959.817871,1481.777100 
	C959.727478,1482.645142 959.307190,1483.179688 958.457642,1483.997925 
z"/>
<path fill="#EF9D94" opacity="1.000000" stroke="none" 
	d="
M427.878235,2666.625244 
	C428.280151,2667.025146 428.694763,2668.048340 428.750244,2669.374023 
	C428.224396,2668.866943 428.057678,2668.057861 427.878235,2666.625244 
z"/>
<path fill="#F4BAB7" opacity="1.000000" stroke="none" 
	d="
M353.072449,2045.991455 
	C353.291290,2046.754883 353.105896,2047.976318 352.409912,2049.584961 
	C352.155640,2048.798096 352.411926,2047.623901 353.072449,2045.991455 
z"/>
<path fill="#F5D5D6" opacity="1.000000" stroke="none" 
	d="
M1020.214233,1498.510864 
	C1020.802673,1498.950806 1021.306580,1499.985352 1021.707214,1501.621094 
	C1021.112549,1501.183350 1020.621155,1500.144531 1020.214233,1498.510864 
z"/>
<path fill="#F5D5D6" opacity="1.000000" stroke="none" 
	d="
M1022.172119,1506.460327 
	C1022.660950,1506.189087 1023.181335,1506.572754 1023.725098,1507.615479 
	C1023.226501,1507.894165 1022.711548,1507.507690 1022.172119,1506.460327 
z"/>
<path fill="#F4BAB7" opacity="1.000000" stroke="none" 
	d="
M900.348511,1539.591309 
	C900.039124,1539.189453 900.301086,1538.710449 901.143433,1538.176758 
	C901.454224,1538.591187 901.186218,1539.055176 900.348511,1539.591309 
z"/>
<path fill="#F5D5D6" opacity="1.000000" stroke="none" 
	d="
M1020.129395,1492.486450 
	C1020.401184,1492.502075 1020.674561,1493.066406 1020.660767,1493.867798 
	C1020.292664,1493.748413 1020.211731,1493.391724 1020.129395,1492.486450 
z"/>
<path fill="#F4BAB7" opacity="1.000000" stroke="none" 
	d="
M869.142212,1575.900635 
	C869.657410,1576.329590 869.458496,1576.937256 868.488708,1577.672485 
	C868.053345,1577.238770 868.290161,1576.665161 869.142212,1575.900635 
z"/>
<path fill="#F5D5D6" opacity="1.000000" stroke="none" 
	d="
M1019.346802,1472.061157 
	C1019.694458,1472.194336 1019.762573,1472.584839 1019.792969,1473.569946 
	C1019.525879,1473.549072 1019.296570,1472.933716 1019.346802,1472.061157 
z"/>
<path fill="#F5D5D6" opacity="1.000000" stroke="none" 
	d="
M1018.387024,1464.346191 
	C1018.925537,1464.218872 1019.295166,1464.697266 1019.463013,1465.793335 
	C1018.968872,1465.873779 1018.621155,1465.387329 1018.387024,1464.346191 
z"/>
<path fill="#F4BAB7" opacity="1.000000" stroke="none" 
	d="
M902.499634,1537.596680 
	C902.190063,1537.092773 902.488159,1536.660889 903.356323,1536.245361 
	C903.754700,1536.769897 903.481750,1537.238892 902.499634,1537.596680 
z"/>
<path fill="#C96B64" opacity="1.000000" stroke="none" 
	d="
M977.689392,1448.265625 
	C977.136780,1448.336060 976.779907,1447.785278 976.637695,1446.620972 
	C977.244629,1446.525513 977.588867,1447.071167 977.689392,1448.265625 
z"/>
</svg>